<?xml version="1.0" encoding="utf-8"?>
<!-- Generator: Adobe Illustrator 26.2.1, SVG Export Plug-In . SVG Version: 6.00 Build 0)  -->
<svg version="1.1" id="Layer_1" xmlns="http://www.w3.org/2000/svg" xmlns:xlink="http://www.w3.org/1999/xlink" x="0px" y="0px"
	 viewBox="0 0 47.1 44.9" style="enable-background:new 0 0 47.1 44.9;" xml:space="preserve">
<g>
	<path d="M43.3,23.3L31.6,4.6c0-0.2,0-0.3-0.1-0.4c-0.2-0.4-0.6-0.6-1.1-0.6c-0.2,0-0.4,0-0.6,0.1l-0.5,0.3L18.1,9
		c0,0-0.1,0-0.1,0.1L4.4,16.9l-0.7,0.3c-0.4,0.2-0.6,0.5-0.6,0.9s0.2,0.8,0.5,1l2.4,1.4v9.8c0,0.4,0.2,0.7,0.5,0.9l7,4
		c0.3,0.2,0.7,0.2,1.1,0s0.5-0.5,0.5-0.9v-5.7l2.2,1.3v6.9c0,0.4,0.2,0.7,0.5,0.9l6.9,4c0.2,0.1,0.3,0.1,0.5,0.1s0.4,0,0.5-0.1
		l14.3-8.2c0.3-0.2,0.5-0.5,0.5-0.9v-6.5l2.4-1.4c0.2-0.1,0.4-0.4,0.5-0.7C43.5,23.8,43.5,23.5,43.3,23.3z M18.8,28.4l-4.4-2.5
		c-0.3-0.2-0.7-0.2-1.1,0s-0.5,0.5-0.5,0.9v5.7l-4.8-2.8v-9.8c0-0.4-0.2-0.7-0.5-0.9l-1-0.6l9.2-4.1l9.4,15c-0.2,0-0.3,0.1-0.5,0.1
		c-0.3,0.2-0.5,0.5-0.5,0.9V39l-4.8-2.8v-6.9C19.4,29,19.2,28.6,18.8,28.4z M38.5,32l-12.1,7v-6.8l1.3,0.7c0,0,0,0,0,0
		c0.1,0.1,0.2,0.1,0.3,0.1c0,0,0.1,0,0.1,0c0,0,0.1,0,0.1,0c0,0,0.1,0,0.1,0c0,0,0.1,0,0.1,0c0.1,0,0.1,0,0.2-0.1c0,0,0.1,0,0.1,0
		c0,0,0,0,0,0l9.8-5.7C38.5,27.4,38.5,32,38.5,32z M28.5,30.7L17.6,13.4l12.4-7.2l10.8,17.3L28.5,30.7z"/>
</g>
</svg>
